<svg viewBox="0 0 600 90" fill="none" xmlns="http://www.w3.org/2000/svg">
<rect width="600" height="90" rx="12" fill="#FEE500"/>
<path d="M244.372 34.604V36.48H253.416C253.332 38.02 253.08 39.476 252.66 40.876L243.112 41.52L243.504 43.536L251.96 42.724C250.42 46.084 247.648 48.94 243 51.236L244.26 53C253.248 48.52 255.712 41.884 255.712 34.604H244.372ZM266.128 42.192H262.096V32H259.8V57.116H262.096V44.096H266.128V42.192Z" fill="#181600"/>
<path d="M270.13 34.604V36.48H279.174C279.09 38.02 278.838 39.476 278.418 40.876L268.87 41.52L269.262 43.536L277.718 42.724C276.178 46.084 273.406 48.94 268.758 51.236L270.018 53C279.006 48.52 281.47 41.884 281.47 34.604H270.13ZM291.886 42.192H287.854V32H285.558V57.116H287.854V44.096H291.886V42.192Z" fill="#181600"/>
<path d="M298.716 40.232C298.716 37.348 301.656 35.472 305.66 35.472C309.664 35.472 312.576 37.348 312.576 40.232C312.576 43.116 309.664 44.992 305.66 44.992C301.656 44.992 298.716 43.116 298.716 40.232ZM306.808 51.992V46.756C311.484 46.42 314.76 43.928 314.76 40.232C314.76 36.228 310.952 33.652 305.66 33.652C300.34 33.652 296.504 36.228 296.504 40.232C296.504 43.928 299.808 46.42 304.484 46.756V51.992H294.264V53.896H317.084V51.992H306.808Z" fill="#181600"/>
<path d="M339.511 52.132V47.4H347.547V45.552H332.091V41.492H346.959V33.848H329.767V35.724H344.719V39.644H329.823V47.4H337.187V52.132H326.967V54.008H349.787V52.132H339.511Z" fill="#181600"/>
<path d="M370.169 37.18C370.169 40.288 370.169 44.04 369.161 49.164L371.457 49.416C372.437 43.984 372.437 40.372 372.437 37.18V34.66H355.217V36.536H370.169V37.18ZM352.781 51.544V53.448H375.489V51.544H352.781Z" fill="#181600"/>
<path d="M399.118 32.028H396.822V50.368H399.118V32.028ZM381.338 39.924C381.338 37.488 383.186 35.752 385.622 35.752C388.114 35.752 389.962 37.488 389.962 39.924C389.962 42.416 388.114 44.152 385.622 44.152C383.186 44.152 381.338 42.416 381.338 39.924ZM392.202 39.924C392.202 36.312 389.374 33.764 385.622 33.764C381.898 33.764 379.098 36.312 379.098 39.924C379.098 43.564 381.898 46.14 385.622 46.14C389.374 46.14 392.202 43.564 392.202 39.924ZM385.258 54.68V48.492H382.962V56.556H399.874V54.68H385.258Z" fill="#181600"/>
<path d="M61.8605 42.7284C61.8605 50.8627 53.8328 57.4568 43.9302 57.4568C34.0276 57.4568 26 50.8627 26 42.7284C26 34.5941 34.0276 28 43.9302 28C53.8328 28 61.8605 34.5941 61.8605 42.7284Z" fill="#3C1E1E"/>
<path d="M33.6844 52.1944L31.3431 63L40.4477 56.8165L36.566 55.5357L33.6844 52.1944Z" fill="#3C1E1E"/>
</svg>
