<svg  viewBox="0 0 400 400" fill="none" xmlns="http://www.w3.org/2000/svg">
<path d="M138.462 0H46.1538C20.7031 0 0 20.7031 0 46.1538V138.462C0 163.912 20.7031 184.615 46.1538 184.615H138.462C163.912 184.615 184.615 163.912 184.615 138.462V46.1538C184.615 20.7031 163.912 0 138.462 0Z" fill="#ADB5BD"/>
<path d="M353.462 215H261.154C235.703 215 215 235.703 215 261.154V353.462C215 378.912 235.703 399.615 261.154 399.615H353.462C378.912 399.615 399.615 378.912 399.615 353.462V261.154C399.615 235.703 378.912 215 353.462 215Z" fill="#ADB5BD"/>
<path d="M275.991 143.886C278.996 146.889 283.865 146.889 286.87 143.884L297.746 133.007C300.751 130.003 300.751 125.132 297.745 122.127L267.914 92.3071H323.077C331.574 92.3071 338.462 99.1948 338.462 107.692V176.923C338.462 181.17 341.906 184.615 346.154 184.615H361.539C365.786 184.615 369.231 181.17 369.231 176.923V107.692C369.231 82.201 348.568 61.5379 323.077 61.5379H267.905L297.733 31.6994C300.736 28.6948 300.736 23.8256 297.731 20.8225L286.854 9.94559C283.85 6.94098 278.979 6.94097 275.974 9.94713L219.888 66.0471C213.882 72.0533 213.883 81.7933 219.891 87.7994L275.991 143.886ZM124.01 256.113C121.005 253.109 116.136 253.11 113.131 256.115L102.254 266.99C99.2495 269.995 99.2495 274.866 102.256 277.87L132.086 307.692H76.9234C68.4265 307.692 61.5388 300.802 61.5388 292.307V223.076C61.5388 218.827 58.0941 215.384 53.8465 215.384H38.4618C34.2141 215.384 30.7695 218.827 30.7695 223.076V292.307C30.7695 317.798 51.4326 338.461 76.9234 338.461H132.096L102.268 368.298C99.2649 371.302 99.2649 376.172 102.27 379.176L113.146 390.052C116.151 393.056 121.022 393.056 124.026 390.052L180.113 333.952C186.119 327.944 186.117 318.206 180.11 312.199L124.01 256.113Z" fill="#ADB5BD"/>
<path fill-rule="evenodd" clip-rule="evenodd" d="M53 137.283V118.854C53 102.96 65.276 90.1633 80.5247 90.1633H104.117C119.366 90.1633 131.642 102.96 131.642 118.854V137.283H92.321H53Z" fill="#F8F9FA"/>
<path d="M92.2441 86.3192C103.058 86.3192 111.825 77.5173 111.825 66.6596C111.825 55.8019 103.058 47 92.2441 47C81.4298 47 72.6631 55.8019 72.6631 66.6596C72.6631 77.5173 81.4298 86.3192 92.2441 86.3192Z" fill="#F8F9FA"/>
<path d="M68.7285 119.502V137.346V119.502ZM115.914 119.502V137.346Z" fill="#F8F9FA"/>
<path d="M115.914 119.502V137.346M68.7285 119.502V137.346V119.502Z" stroke="#ADB5BD" stroke-width="2" stroke-linejoin="round"/>
<path d="M333.296 337H281.008C278.982 337.006 277.022 336.275 275.495 334.944C273.969 333.613 272.979 331.772 272.711 329.767L267.046 288.018C266.906 286.993 267.087 285.949 267.564 285.031C268.042 284.113 268.792 283.365 269.713 282.89C270.634 282.416 271.679 282.237 272.705 282.38C273.731 282.523 274.688 282.98 275.444 283.688L284.793 292.323C285.287 292.8 285.875 293.17 286.518 293.411C287.162 293.652 287.848 293.758 288.534 293.723C289.221 293.688 289.893 293.512 290.508 293.206C291.124 292.901 291.67 292.472 292.112 291.947L303.292 278.782C303.762 278.224 304.35 277.775 305.012 277.467C305.674 277.159 306.396 277 307.127 277C307.858 277 308.58 277.159 309.242 277.467C309.904 277.775 310.492 278.224 310.962 278.782L322.192 291.947C322.63 292.464 323.169 292.887 323.776 293.19C324.383 293.492 325.045 293.669 325.722 293.709C326.4 293.749 327.078 293.651 327.716 293.421C328.355 293.191 328.94 292.835 329.436 292.373L338.785 283.738C339.534 283.005 340.493 282.526 341.528 282.366C342.563 282.206 343.623 282.374 344.558 282.846C345.492 283.318 346.256 284.071 346.74 284.999C347.224 285.926 347.405 286.982 347.258 288.018L341.593 329.741C341.331 331.752 340.343 333.598 338.816 334.934C337.289 336.27 335.326 337.005 333.296 337Z" fill="#F8F9FA"/>
</svg>
