<svg  viewBox="0 0 10 6" fill="none" xmlns="http://www.w3.org/2000/svg">
<path d="M1.58199 5.14099C1.45185 5.26984 1.27612 5.34212 1.09299 5.34212C0.909853 5.34212 0.734121 5.26984 0.603986 5.14099C0.539736 5.07772 0.488713 5.0023 0.453886 4.91912C0.419059 4.83594 0.401123 4.74666 0.401123 4.65649C0.401123 4.56631 0.419059 4.47704 0.453886 4.39386C0.488713 4.31068 0.539736 4.23526 0.603986 4.17199L4.51199 0.34199C4.64242 0.213316 4.81827 0.141174 5.00149 0.141174C5.1847 0.141174 5.36056 0.213316 5.49099 0.34199L9.39899 4.17199C9.46324 4.23526 9.51426 4.31068 9.54909 4.39386C9.58391 4.47704 9.60185 4.56631 9.60185 4.65649C9.60185 4.74666 9.58391 4.83594 9.54909 4.91912C9.51426 5.0023 9.46324 5.07772 9.39899 5.14099C9.26856 5.26966 9.09271 5.34181 8.90949 5.34181C8.72627 5.34181 8.55042 5.26966 8.41999 5.14099L4.99999 1.99999L1.58199 5.14099Z" fill="currentColor"/>
</svg>
