<svg  viewBox="0 0 340 255" fill="none" xmlns="http://www.w3.org/2000/svg">
<path d="M280.678 254.396H59.3067C50.7263 254.42 42.4304 251.321 35.9669 245.678C29.5034 240.034 25.3139 232.232 24.1802 223.727L0.196523 46.7145C-0.399011 42.3684 0.366699 37.9446 2.38832 34.0516C4.40993 30.1585 7.58814 26.9875 11.4857 24.9747C15.3834 22.9619 19.8089 22.2062 24.1536 22.8116C28.4982 23.417 32.5486 25.3537 35.7476 28.3553L75.3312 64.9675C77.4235 66.9899 79.9093 68.5604 82.6342 69.5815C85.3591 70.6027 88.2648 71.0525 91.1709 70.9033C94.077 70.754 96.9214 70.0087 99.5273 68.7137C102.133 67.4188 104.445 65.6018 106.319 63.3757L153.65 7.55527C155.642 5.18877 158.127 3.28638 160.932 1.9813C163.737 0.676214 166.793 0 169.886 0C172.98 0 176.036 0.676214 178.841 1.9813C181.645 3.28638 184.131 5.18877 186.123 7.55527L233.666 63.3757C235.523 65.5674 237.805 67.3594 240.374 68.6432C242.944 69.927 245.747 70.676 248.614 70.8446C251.482 71.0133 254.354 70.5982 257.056 69.6245C259.758 68.6508 262.235 67.1387 264.335 65.1798L303.919 28.5675C307.087 25.4629 311.147 23.4287 315.531 22.7506C319.914 22.0725 324.399 22.7846 328.357 24.7868C332.315 26.7891 335.546 29.9809 337.596 33.9139C339.646 37.8468 340.413 42.3233 339.788 46.7145L315.805 223.621C314.695 232.145 310.516 239.973 304.05 245.638C297.584 251.303 289.275 254.417 280.678 254.396Z" fill="currentColor"/>
</svg>
