<svg viewBox="0 0 20 20" fill="none" xmlns="http://www.w3.org/2000/svg">
<path d="M10 11H10.0006C10.2766 10.9998 10.5002 10.776 10.5 10.5V6.5C10.5 6.22388 10.2761 6 10 6C9.72388 6 9.5 6.22388 9.5 6.5V10.5005C9.50018 10.7766 9.724 11.0002 10 11ZM19.8535 5.71191L14.2881 0.146484C14.1943 0.0526733 14.0672 0 13.9346 0H6.06543C5.9328 0 5.80566 0.0526733 5.71191 0.146484L0.146484 5.71191C0.0526733 5.80566 0 5.9328 0 6.06543V13.9346C0 14.0672 0.0526733 14.1943 0.146484 14.2881L5.71191 19.8535C5.80566 19.9473 5.9328 20 6.06543 20H13.9346C14.0672 20 14.1943 19.9473 14.2881 19.8535L19.8535 14.2881C19.9473 14.1943 20 14.0672 20 13.9346V6.06543C20 5.9328 19.9473 5.80566 19.8535 5.71191ZM19 13.7275L13.7275 19H6.27246L1 13.7275V6.27246L6.27246 1H13.7275L19 6.27246V13.7275ZM10 12.375C9.65485 12.375 9.375 12.6548 9.375 13C9.375 13.3452 9.65485 13.625 10 13.625C10.3452 13.625 10.625 13.3452 10.625 13C10.625 12.6548 10.3452 12.375 10 12.375Z" fill="currentColor"/>
</svg>
