<svg viewBox="0 0 400 500" fill="none" xmlns="http://www.w3.org/2000/svg">
<path d="M325 175V125C325 55 270 0 200 0C130 0 75 55 75 125V175C32.5 175 0 207.5 0 250V425C0 467.5 32.5 500 75 500H325C367.5 500 400 467.5 400 425V250C400 207.5 367.5 175 325 175ZM125 125C125 82.5 157.5 50 200 50C242.5 50 275 82.5 275 125V175H125V125ZM227.5 337.5L225 340V375C225 390 215 400 200 400C185 400 175 390 175 375V340C160 325 157.5 302.5 172.5 287.5C187.5 272.5 210 270 225 285C240 297.5 242.5 322.5 227.5 337.5Z" fill="currentColor"/>
</svg>
