<svg viewBox="0 0 120 120" fill="none" xmlns="http://www.w3.org/2000/svg">
<rect rx="30" fill="currentColor"/>
<path d="M89.1438 43.4502L62.9338 59.4214C62.0514 59.9595 61.0395 60.2478 60.0061 60.2555C58.9726 60.2632 57.9565 59.99 57.0662 59.4652L30.6075 43.9114C30.2142 44.6556 30.0058 45.4835 30 46.3252V73.1627C30 76.1002 32.4 78.4877 35.3375 78.4877H84.675C87.6125 78.4877 90 76.1002 90 73.1627V46.3252C90 45.2639 89.68 44.2814 89.1438 43.4502V43.4502Z" fill="white"/>
<path d="M61.3663 57.2863L86.97 41.685C86.1887 41.2417 85.307 41.0059 84.4087 41H35.0713C33.9275 41 32.8713 41.37 32 41.9862L58.0675 57.3113C59.09 57.9125 60.355 57.9038 61.3663 57.2863V57.2863Z" fill="white"/>
</svg>
